<svg fill="#FFFFFF" height="800px" width="800px" version="1.1" id="Capa_1" xmlns="http://www.w3.org/2000/svg" xmlns:xlink="http://www.w3.org/1999/xlink" 
	 viewBox="0 0 485.06 485.06" xml:space="preserve">
<g>
	<path d="M367.604,57.802H74.4c-5.799,0-10.5,4.701-10.5,10.5v348.457c0,5.799,4.701,10.5,10.5,10.5h293.204
		c5.799,0,10.5-4.701,10.5-10.5V68.302C378.104,62.503,373.403,57.802,367.604,57.802z M357.104,406.258H84.9V78.802h272.204
		V406.258z"/>
	<path d="M220.358,339.535c52.737,0,95.643-42.905,95.643-95.644c0-52.738-42.905-95.644-95.643-95.644
		c-52.738,0-95.644,42.905-95.644,95.644C124.714,296.629,167.62,339.535,220.358,339.535z M220.358,169.248
		c41.158,0,74.643,33.485,74.643,74.644s-33.484,74.644-74.643,74.644s-74.644-33.485-74.644-74.644S179.2,169.248,220.358,169.248z
		"/>
	<path d="M209.858,280.786c0,5.799,4.701,10.5,10.5,10.5c26.134,0,47.395-21.261,47.395-47.395c0-5.799-4.701-10.5-10.5-10.5
		s-10.5,4.701-10.5,10.5c0,14.554-11.841,26.395-26.395,26.395C214.559,270.286,209.858,274.987,209.858,280.786z"/>
	<path d="M183.463,254.391c5.799,0,10.5-4.701,10.5-10.5c0-14.554,11.841-26.395,26.395-26.395c5.799,0,10.5-4.701,10.5-10.5
		s-4.701-10.5-10.5-10.5c-26.134,0-47.395,21.261-47.395,47.395C172.963,249.69,177.665,254.391,183.463,254.391z"/>
	<path d="M451.19,174.982c16.224,0,29.422-13.198,29.422-29.421v-17.5c0-16.223-13.198-29.421-29.422-29.421h-13.634V32.521
		C437.556,14.589,422.967,0,405.036,0H36.968C19.037,0,4.448,14.589,4.448,32.521v420.019c0,17.932,14.589,32.521,32.521,32.521
		h368.067c17.932,0,32.521-14.589,32.521-32.521v-66.118h13.634c16.224,0,29.422-13.198,29.422-29.421v-17.5
		c0-16.223-13.198-29.421-29.422-29.421h-13.634V174.982H451.19z M451.19,119.639c4.643,0,8.422,3.778,8.422,8.421v17.5
		c0,4.644-3.778,8.421-8.422,8.421h-13.634v-34.343H451.19z M416.556,452.539c0,6.353-5.168,11.521-11.521,11.521H36.968
		c-6.352,0-11.52-5.168-11.52-11.521V32.521c0-6.353,5.168-11.521,11.52-11.521h368.067c6.353,0,11.521,5.168,11.521,11.521V452.539
		z M451.19,331.078c4.643,0,8.422,3.778,8.422,8.421v17.5c0,4.644-3.778,8.421-8.422,8.421h-13.634v-34.343H451.19z"/>
</g>
</svg>